<svg width="960" height="640" viewBox="0 0 960 640" fill="none" xmlns="http://www.w3.org/2000/svg">
  <rect width="960" height="640" rx="24" fill="#F8F8F6"/>
  <rect x="120" y="120" width="720" height="400" rx="24" fill="white" stroke="#E5E5E2" stroke-width="2"/>

  <rect x="170" y="180" width="270" height="260" rx="16" fill="#21211F" fill-opacity="0.03"/>
  <rect x="196" y="214" width="220" height="14" rx="7" fill="#21211F" fill-opacity="0.2"/>
  <rect x="196" y="246" width="180" height="10" rx="5" fill="#21211F" fill-opacity="0.14"/>
  <rect x="196" y="268" width="140" height="10" rx="5" fill="#21211F" fill-opacity="0.14"/>
  <rect x="196" y="310" width="170" height="30" rx="9" fill="#F87018"/>
  <rect x="196" y="356" width="210" height="10" rx="5" fill="#21211F" fill-opacity="0.13"/>

  <rect x="490" y="180" width="300" height="160" rx="16" fill="#F87018" fill-opacity="0.14"/>
  <circle cx="550" cy="260" r="28" fill="#F87018" fill-opacity="0.35"/>
  <circle cx="635" cy="260" r="28" fill="#21211F" fill-opacity="0.2"/>
  <circle cx="720" cy="260" r="28" fill="#F87018" fill-opacity="0.35"/>

  <rect x="490" y="362" width="300" height="78" rx="14" fill="#21211F" fill-opacity="0.04"/>
  <rect x="520" y="388" width="184" height="10" rx="5" fill="#21211F" fill-opacity="0.18"/>
  <rect x="520" y="408" width="130" height="10" rx="5" fill="#21211F" fill-opacity="0.12"/>
</svg>
